<?xml version="1.0" standalone="no"?><svg xmlns="http://www.w3.org/2000/svg" viewBox="0 0 1440 320"><path fill="#ffd700" fill-opacity="1" d="M0,160L26.7,154.7C53.3,149,107,139,160,128C213.3,117,267,107,320,112C373.3,117,427,139,480,133.3C533.3,128,587,96,640,106.7C693.3,117,747,171,800,176C853.3,181,907,139,960,128C1013.3,117,1067,139,1120,165.3C1173.3,192,1227,224,1280,202.7C1333.3,181,1387,107,1413,69.3L1440,32L1440,320L1413.3,320C1386.7,320,1333,320,1280,320C1226.7,320,1173,320,1120,320C1066.7,320,1013,320,960,320C906.7,320,853,320,800,320C746.7,320,693,320,640,320C586.7,320,533,320,480,320C426.7,320,373,320,320,320C266.7,320,213,320,160,320C106.7,320,53,320,27,320L0,320Z"></path></svg>